<mxfile host="app.diagrams.net" modified="2020-04-16T17:25:12.232Z" agent="5.0 (X11; Linux x86_64) AppleWebKit/537.36 (KHTML, like Gecko) Chrome/80.0.3987.116 Safari/537.36" etag="ey17R6iqJu-Vkpr6YL9M" version="12.9.11" type="github">
  <diagram name="Page-1" id="74b105a0-9070-1c63-61bc-23e55f88626e">
    <mxGraphModel dx="2764" dy="1616" grid="1" gridSize="10" guides="1" tooltips="1" connect="1" arrows="1" fold="1" page="1" pageScale="1.5" pageWidth="1169" pageHeight="826" background="none" math="0" shadow="0">
      <root>
        <mxCell id="0" style=";html=1;" />
        <mxCell id="1" style=";html=1;" parent="0" />
        <mxCell id="ZWikligRBsuyGkA39ljw-20" value="" style="group" vertex="1" connectable="0" parent="1">
          <mxGeometry x="1800" y="300" width="1370" height="665" as="geometry" />
        </mxCell>
        <mxCell id="ZWikligRBsuyGkA39ljw-2" value="" style="rounded=0;whiteSpace=wrap;html=1;fillColor=#dae8fc;strokeColor=#6c8ebf;" vertex="1" parent="ZWikligRBsuyGkA39ljw-20">
          <mxGeometry x="600" y="55.96" width="629.06" height="578.07" as="geometry" />
        </mxCell>
        <mxCell id="ZWikligRBsuyGkA39ljw-1" value="" style="shape=image;html=1;verticalAlign=top;verticalLabelPosition=bottom;labelBackgroundColor=#ffffff;imageAspect=0;aspect=fixed;image=https://cdn4.iconfinder.com/data/icons/imod/128/Harware/iDatabase.png;rotation=0;" vertex="1" parent="ZWikligRBsuyGkA39ljw-20">
          <mxGeometry x="1071.23320754717" y="281.8470588235295" width="128.84900038446753" height="128.84900038446753" as="geometry" />
        </mxCell>
        <mxCell id="ZWikligRBsuyGkA39ljw-7" value="" style="outlineConnect=0;dashed=0;verticalLabelPosition=bottom;verticalAlign=top;align=center;html=1;shape=mxgraph.aws3.traditional_server;fillColor=#7D7C7C;gradientColor=none;" vertex="1" parent="ZWikligRBsuyGkA39ljw-20">
          <mxGeometry x="689.9969182389937" y="250.6478431372549" width="163.71069182389937" height="191.2418300653595" as="geometry" />
        </mxCell>
        <mxCell id="ZWikligRBsuyGkA39ljw-12" value="" style="shape=flexArrow;endArrow=classic;startArrow=classic;html=1;exitX=0;exitY=0.5;exitDx=0;exitDy=0;entryX=1;entryY=0.5;entryDx=0;entryDy=0;entryPerimeter=0;" edge="1" parent="ZWikligRBsuyGkA39ljw-20" source="ZWikligRBsuyGkA39ljw-1" target="ZWikligRBsuyGkA39ljw-7">
          <mxGeometry width="50" height="50" relative="1" as="geometry">
            <mxPoint x="1290.754716981132" y="129.8177777777778" as="sourcePoint" />
            <mxPoint x="1385.5345911949687" y="34.19686274509805" as="targetPoint" />
          </mxGeometry>
        </mxCell>
        <mxCell id="ZWikligRBsuyGkA39ljw-14" value="&lt;font style=&quot;font-size: 29px&quot;&gt;&lt;b&gt;Database&lt;/b&gt;&lt;/font&gt;" style="text;html=1;strokeColor=none;fillColor=none;align=center;verticalAlign=middle;whiteSpace=wrap;rounded=0;" vertex="1" parent="ZWikligRBsuyGkA39ljw-20">
          <mxGeometry x="1130" y="225.44" width="22.89" height="17.39" as="geometry" />
        </mxCell>
        <mxCell id="ZWikligRBsuyGkA39ljw-15" value="&lt;font style=&quot;font-size: 29px&quot;&gt;&lt;b&gt;Server&lt;/b&gt;&lt;/font&gt;" style="text;html=1;strokeColor=none;fillColor=none;align=center;verticalAlign=middle;whiteSpace=wrap;rounded=0;" vertex="1" parent="ZWikligRBsuyGkA39ljw-20">
          <mxGeometry x="754.6195597484277" y="162.03901960784313" width="34.465408805031444" height="130.3921568627451" as="geometry" />
        </mxCell>
        <mxCell id="ZWikligRBsuyGkA39ljw-18" value="&lt;font style=&quot;font-size: 19px&quot;&gt;Acces persisted data&lt;/font&gt;" style="text;html=1;strokeColor=none;fillColor=none;align=center;verticalAlign=middle;whiteSpace=wrap;rounded=0;" vertex="1" parent="ZWikligRBsuyGkA39ljw-20">
          <mxGeometry x="862.09" y="249.34" width="193.96" height="130.39" as="geometry" />
        </mxCell>
        <mxCell id="ZWikligRBsuyGkA39ljw-19" value="&lt;font style=&quot;font-size: 37px&quot;&gt;&lt;b&gt;Server Side&lt;/b&gt;&lt;/font&gt;" style="text;html=1;strokeColor=none;fillColor=none;align=center;verticalAlign=middle;whiteSpace=wrap;rounded=0;" vertex="1" parent="ZWikligRBsuyGkA39ljw-20">
          <mxGeometry x="844.9011949685533" y="132.0377777777778" width="228.33333333333334" height="17.385620915032682" as="geometry" />
        </mxCell>
        <mxCell id="ZWikligRBsuyGkA39ljw-28" value="&lt;font style=&quot;font-size: 25px&quot;&gt;&lt;b&gt;Connection via a rest API&lt;/b&gt;&lt;/font&gt;" style="text;html=1;strokeColor=none;fillColor=none;align=center;verticalAlign=middle;whiteSpace=wrap;rounded=0;" vertex="1" parent="ZWikligRBsuyGkA39ljw-20">
          <mxGeometry x="120" y="290" width="410" height="35" as="geometry" />
        </mxCell>
        <mxCell id="10b056a9c633e61c-30" value="&lt;font style=&quot;font-size: 36px&quot;&gt;Architecture Diagram&lt;/font&gt;" style="text;strokeColor=none;fillColor=none;html=1;fontSize=24;fontStyle=1;verticalAlign=middle;align=center;" parent="1" vertex="1">
          <mxGeometry x="1360" y="170" width="1360" height="40" as="geometry" />
        </mxCell>
        <mxCell id="ZWikligRBsuyGkA39ljw-23" value="" style="rounded=0;whiteSpace=wrap;html=1;fillColor=#dae8fc;strokeColor=#6c8ebf;" vertex="1" parent="1">
          <mxGeometry x="850" y="270" width="1000" height="750" as="geometry" />
        </mxCell>
        <mxCell id="ZWikligRBsuyGkA39ljw-24" value="" style="shape=image;html=1;verticalAlign=top;verticalLabelPosition=bottom;labelBackgroundColor=#ffffff;imageAspect=0;aspect=fixed;image=https://cdn0.iconfinder.com/data/icons/internet-line/512/Internet_Line-20-128.png" vertex="1" parent="1">
          <mxGeometry x="1420" y="460" width="402" height="402" as="geometry" />
        </mxCell>
        <mxCell id="ZWikligRBsuyGkA39ljw-25" value="&lt;span style=&quot;font-size: 37px&quot;&gt;&lt;b&gt;Client Side&lt;/b&gt;&lt;/span&gt;" style="text;html=1;strokeColor=none;fillColor=none;align=center;verticalAlign=middle;whiteSpace=wrap;rounded=0;" vertex="1" parent="1">
          <mxGeometry x="1220.0000000000002" y="300" width="228.33" height="95.62" as="geometry" />
        </mxCell>
        <mxCell id="ZWikligRBsuyGkA39ljw-26" value="&lt;span style=&quot;font-size: 29px&quot;&gt;&lt;b&gt;Browser&lt;/b&gt;&lt;/span&gt;" style="text;html=1;strokeColor=none;fillColor=none;align=center;verticalAlign=middle;whiteSpace=wrap;rounded=0;" vertex="1" parent="1">
          <mxGeometry x="1603.7695597484276" y="359.99901960784314" width="34.465408805031444" height="130.3921568627451" as="geometry" />
        </mxCell>
        <mxCell id="ZWikligRBsuyGkA39ljw-27" value="" style="shape=flexArrow;endArrow=classic;startArrow=classic;html=1;exitX=1;exitY=0.5;exitDx=0;exitDy=0;entryX=0;entryY=0.5;entryDx=0;entryDy=0;startWidth=43.333333333333336;startSize=8.483333333333334;endWidth=43.333333333333336;endSize=16.266666666666666;width=16.666666666666668;" edge="1" parent="1" source="ZWikligRBsuyGkA39ljw-23" target="ZWikligRBsuyGkA39ljw-2">
          <mxGeometry width="50" height="50" relative="1" as="geometry">
            <mxPoint x="1360" y="720" as="sourcePoint" />
            <mxPoint x="1410" y="670" as="targetPoint" />
          </mxGeometry>
        </mxCell>
        <mxCell id="ZWikligRBsuyGkA39ljw-29" value="" style="shape=image;html=1;verticalAlign=top;verticalLabelPosition=bottom;labelBackgroundColor=#ffffff;imageAspect=0;aspect=fixed;image=https://cdn2.iconfinder.com/data/icons/circle-icons-1/64/browser-128.png" vertex="1" parent="1">
          <mxGeometry x="890" y="490.39" width="340" height="340" as="geometry" />
        </mxCell>
        <mxCell id="ZWikligRBsuyGkA39ljw-34" value="&lt;span style=&quot;font-size: 29px&quot;&gt;&lt;b&gt;User interface&lt;/b&gt;&lt;/span&gt;" style="text;html=1;strokeColor=none;fillColor=none;align=center;verticalAlign=middle;whiteSpace=wrap;rounded=0;" vertex="1" parent="1">
          <mxGeometry x="951.39" y="370" width="217.23" height="130.39" as="geometry" />
        </mxCell>
        <mxCell id="ZWikligRBsuyGkA39ljw-38" value="" style="shape=flexArrow;endArrow=classic;startArrow=classic;html=1;" edge="1" parent="1" source="ZWikligRBsuyGkA39ljw-24" target="ZWikligRBsuyGkA39ljw-29">
          <mxGeometry width="50" height="50" relative="1" as="geometry">
            <mxPoint x="2881.2332075471695" y="656.2715590157633" as="sourcePoint" />
            <mxPoint x="2663.7076100628933" y="656.2687581699346" as="targetPoint" />
          </mxGeometry>
        </mxCell>
      </root>
    </mxGraphModel>
  </diagram>
</mxfile>
